HIERARCHY
ROOT root
{
	OFFSET 0.000000 0.000000 0.000000
	CHANNELS 6 Xposition Yposition Zposition Zrotation Yrotation Xrotation
	JOINT lhip
	{
		OFFSET 0.058581 -0.082280 -0.017664
		CHANNELS 3 Zrotation Yrotation Xrotation
		JOINT lknee
		{
			OFFSET 0.043451 -0.386469 0.008037
			CHANNELS 3 Zrotation Yrotation Xrotation
			JOINT lankle
			{
				OFFSET -0.014790 -0.426874 -0.037428
				CHANNELS 3 Zrotation Yrotation Xrotation
				JOINT ltoe
				{
					OFFSET 0.041054 -0.060286 0.122042
					CHANNELS 3 Zrotation Yrotation Xrotation
					End Site
					{
						OFFSET 0.000000 0.000000 0.000000
					}
				}
			}
		}
	}
	JOINT rhip
	{
		OFFSET -0.060310 -0.090513 -0.013543
		CHANNELS 3 Zrotation Yrotation Xrotation
		JOINT rknee
		{
			OFFSET -0.043257 -0.383688 -0.004843
			CHANNELS 3 Zrotation Yrotation Xrotation
			JOINT rankle
			{
				OFFSET 0.019056 -0.420046 -0.034562
				CHANNELS 3 Zrotation Yrotation Xrotation
				JOINT rtoe
				{
					OFFSET -0.034840 -0.062106 0.130323
					CHANNELS 3 Zrotation Yrotation Xrotation
					End Site
					{
						OFFSET 0.000000 0.000000 0.000000
					}
				}
			}
		}
	}
	JOINT lowerback
	{
		OFFSET 0.004439 0.124404 -0.038385
		CHANNELS 3 Zrotation Yrotation Xrotation
		JOINT upperback
		{
			OFFSET 0.004488 0.137956 0.026820
			CHANNELS 3 Zrotation Yrotation Xrotation
			JOINT chest
			{
				OFFSET -0.002265 0.056032 0.002855
				CHANNELS 3 Zrotation Yrotation Xrotation
				JOINT lowerneck
				{
					OFFSET -0.013390 0.211636 -0.033468
					CHANNELS 3 Zrotation Yrotation Xrotation
					JOINT upperneck
					{
						OFFSET 0.010113 0.088937 0.050410
						CHANNELS 3 Zrotation Yrotation Xrotation
						End Site
						{
							OFFSET 0.000000 0.000000 0.000000
						}
					}
				}
				JOINT lclavicle
				{
					OFFSET 0.071702 0.114000 -0.018898
					CHANNELS 3 Zrotation Yrotation Xrotation
					JOINT lshoulder
					{
						OFFSET 0.122921 0.045205 -0.019046
						CHANNELS 3 Zrotation Yrotation Xrotation
						JOINT lelbow
						{
							OFFSET 0.255332 -0.015649 -0.022946
							CHANNELS 3 Zrotation Yrotation Xrotation
							JOINT lwrist
							{
								OFFSET 0.265709 0.012698 -0.007375
								CHANNELS 3 Zrotation Yrotation Xrotation
								End Site
								{
									OFFSET 0.000000 0.000000 0.000000
								}
							}
						}
					}
				}
				JOINT rclavicle
				{
					OFFSET -0.082954 0.112472 -0.023707
					CHANNELS 3 Zrotation Yrotation Xrotation
					JOINT rshoulder
					{
						OFFSET -0.113228 0.046853 -0.008472
						CHANNELS 3 Zrotation Yrotation Xrotation
						JOINT relbow
						{
							OFFSET -0.260127 -0.014369 -0.031269
							CHANNELS 3 Zrotation Yrotation Xrotation
							JOINT rwrist
							{
								OFFSET -0.269108 0.006794 -0.006027
								CHANNELS 3 Zrotation Yrotation Xrotation
								End Site
								{
									OFFSET 0.000000 0.000000 0.000000
								}
							}
						}
					}
				}
			}
		}
	}
}
MOTION
Frames: 16
Frame Time: 0.033333
0.346518 0.149414 1.005920 85.287897 0.416568 91.320268 5.259306 5.235673 4.133030 -3.663866 0.719250 -6.672036 0.020497 8.928258 -2.395704 0.000000 -0.000000 0.000000 -5.700227 -3.968013 -0.671752 2.345174 -1.665663 0.352812 4.525532 -4.070463 -5.375161 0.000000 -0.000000 0.000000 -4.678445 3.622676 -8.445407 3.256716 -2.631252 20.138568 0.482030 0.679058 -6.082027 1.878076 5.722096 3.285366 4.981761 -4.780903 -8.338641 -23.407403 -5.685933 0.812414 -57.280873 -8.541859 15.790263 0.539488 -18.539710 2.342133 -7.509240 -16.140777 8.905258 27.289375 8.946764 9.326766 53.846692 6.415851 13.146718 -9.853023 23.919030 -6.701051 1.399977 12.952788 -0.768190 
0.346583 0.149495 1.005857 85.334817 0.410208 91.222495 5.249635 5.214065 4.226733 -3.632180 0.651813 -6.653075 -0.115123 8.954467 -2.453333 0.000000 -0.000000 0.000000 -5.710232 -3.991942 -0.497510 2.332223 -1.527229 0.250518 4.569818 -4.200435 -5.367527 0.000000 -0.000000 0.000000 -4.612191 3.528643 -8.233061 3.136152 -2.515181 19.740566 0.549653 0.710042 -5.917258 1.643118 5.135095 2.730630 4.959012 -5.064093 -7.473036 -23.358714 -5.817409 1.040382 -57.322314 -8.540226 15.459592 0.522019 -18.544257 2.674485 -7.320858 -16.133674 8.752187 27.327647 8.801152 9.495258 53.855248 6.542834 12.973991 -9.866882 23.928738 -6.531948 1.392045 12.953383 -0.680027 
0.346643 0.149384 1.005740 85.341839 0.413199 91.218498 5.260665 5.211215 4.208016 -3.641974 0.669919 -6.635044 -0.174690 8.952792 -2.458372 0.000000 -0.000000 0.000000 -5.715009 -3.986442 -0.381357 2.364123 -1.429164 0.027446 4.577406 -4.310099 -5.311977 0.000000 -0.000000 0.000000 -4.565348 3.498179 -8.238749 3.071551 -2.468306 19.673452 0.575920 0.736948 -5.884935 1.545972 4.942363 2.432608 4.956218 -5.162463 -7.018532 -23.261756 -5.885584 1.205838 -57.443772 -8.625215 15.299505 0.565052 -18.543246 2.861164 -7.327780 -16.149952 8.644914 27.218770 8.785243 9.654528 53.993657 6.658567 12.897872 -9.895810 23.946775 -6.501350 1.361103 12.950654 -0.781980 
0.346738 0.149459 1.005771 85.395919 0.385992 91.193807 5.215429 5.178772 4.208564 -3.616993 0.635112 -6.612430 -0.163391 8.960064 -2.454557 0.000000 -0.000000 0.000000 -5.717364 -3.968811 -0.349206 2.306048 -1.432974 0.037011 4.570884 -4.351295 -5.336311 0.000000 -0.000000 0.000000 -4.556319 3.470490 -8.217023 3.040473 -2.462619 19.651804 0.568087 0.759177 -5.905679 1.539991 4.859969 2.361343 4.947367 -5.227123 -6.938538 -23.184347 -5.916692 1.253633 -57.533515 -8.624903 15.300785 0.540791 -18.633154 2.787066 -7.367610 -16.011560 8.456534 27.114955 8.882132 9.736531 54.146731 6.645303 12.926071 -9.938047 23.909594 -6.666031 1.393779 12.966663 -0.893671 
0.346800 0.149431 1.005789 85.404793 0.391684 91.200233 5.221817 5.186080 4.198148 -3.621192 0.647703 -6.598659 -0.195827 8.951863 -2.475820 0.000000 -0.000000 0.000000 -5.718636 -3.958470 -0.329660 2.317201 -1.460121 0.003024 4.565332 -4.339290 -5.320831 0.000000 -0.000000 0.000000 -4.551099 3.461832 -8.250199 3.017301 -2.471107 19.697121 0.575963 0.771214 -5.908951 1.642494 5.029927 2.529900 4.976659 -5.080441 -7.153455 -23.103534 -5.927799 1.199932 -57.612975 -8.566069 15.325982 0.578846 -18.587040 2.721450 -7.438285 -16.132552 8.645031 26.991208 9.052130 9.761993 54.311311 6.567226 12.978844 -9.974326 23.878846 -6.805459 1.306404 13.057496 -0.941023 
0.346824 0.149313 1.005900 85.435560 0.351088 91.248688 5.175801 5.183387 4.117202 -3.631142 0.615773 -6.558957 -0.142786 8.930125 -2.467829 0.000000 -0.000000 0.000000 -5.740223 -3.969837 -0.394652 2.310617 -1.415283 0.038802 4.525655 -4.410975 -5.338546 0.000000 -0.000000 0.000000 -4.526649 3.646985 -8.017027 2.999828 -2.437241 19.418328 0.544019 0.522612 -6.086074 1.680661 5.026573 2.496225 4.935181 -5.058579 -7.030735 -23.133901 -5.549204 1.052685 -57.523878 -8.546917 15.374777 0.390724 -18.551600 3.141780 -7.428658 -16.107817 8.679505 27.321853 8.278400 9.302433 54.056270 6.632555 13.006405 -9.790750 23.942086 -6.153686 1.637667 12.910728 -0.596080 
0.346913 0.149292 1.006086 85.424453 0.327580 91.229899 5.136434 5.178186 4.159875 -3.619678 0.608292 -6.578341 -0.124760 8.932406 -2.503534 0.000000 -0.000000 0.000000 -5.766319 -3.941024 -0.336470 2.319872 -1.410047 -0.027310 4.530739 -4.420408 -5.354002 0.000000 -0.000000 0.000000 -4.448929 3.766415 -7.915600 2.898735 -2.377308 19.450142 0.499536 0.514467 -6.380053 1.694204 4.852703 2.560003 5.020540 -5.291375 -6.935440 -23.048571 -5.683142 1.249772 -57.566176 -8.491818 15.344672 0.401577 -18.540460 3.079211 -7.393102 -16.161849 8.638571 27.255985 8.538605 9.622792 54.293592 6.443263 13.032961 -9.918548 23.876769 -6.471945 1.343081 13.065255 -0.884366 
0.346852 0.149290 1.006150 85.442904 0.339826 91.169814 5.171556 5.152495 4.179126 -3.643041 0.604645 -6.520652 -0.071363 8.929477 -2.532352 0.000000 -0.000000 0.000000 -5.736382 -3.970586 -0.304547 2.294215 -1.365813 0.021642 4.521052 -4.448607 -5.387272 0.000000 -0.000000 0.000000 -4.464564 3.775131 -7.761746 2.930274 -2.374583 19.178066 0.542943 0.442050 -6.332399 1.464149 4.414272 2.153552 4.972159 -5.661941 -6.261253 -23.135298 -5.575271 1.466371 -57.532641 -8.625665 15.186052 0.339433 -18.450766 3.428493 -7.050011 -16.186888 8.337626 27.425745 8.121309 9.573418 54.065217 6.664611 12.894298 -9.792923 23.974379 -5.875360 1.257033 12.952654 -0.776142 
0.346922 0.149531 1.006379 85.447020 0.293435 91.112785 5.106498 5.149155 4.224479 -3.622218 0.596464 -6.489335 -0.109239 8.962170 -2.540417 0.000000 -0.000000 0.000000 -5.796371 -3.946052 -0.196536 2.289028 -1.397515 -0.047889 4.538920 -4.467532 -5.363404 0.000000 -0.000000 0.000000 -4.413421 3.758829 -7.726305 2.815419 -2.369838 19.327484 0.495801 0.573689 -6.496379 1.450237 4.378946 2.295495 5.148078 -5.730461 -6.340002 -23.066044 -5.819880 1.612466 -57.529790 -8.525215 15.188131 0.387677 -18.462444 3.149061 -7.069748 -16.310514 8.393133 27.219566 8.764904 9.983963 54.397401 6.383148 12.975372 -9.993138 23.884396 -6.481627 0.993102 13.155300 -1.064952 
0.346891 0.149765 1.006518 85.426309 0.292209 91.067885 5.104457 5.159092 4.265368 -3.624777 0.600188 -6.468326 -0.103125 8.961174 -2.586716 0.000000 -0.000000 0.000000 -5.813092 -3.971964 -0.178380 2.288528 -1.413455 0.013855 4.573936 -4.402559 -5.401343 0.000000 -0.000000 0.000000 -4.388460 3.759010 -7.709774 2.793865 -2.363706 19.370181 0.504332 0.607208 -6.536722 1.360185 4.439785 2.390052 5.247077 -5.705126 -6.460557 -23.018724 -5.922273 1.770831 -57.580192 -8.528461 15.084779 0.414116 -18.470586 3.216324 -7.000501 -16.343223 8.385470 27.211392 8.907038 10.171099 54.390098 6.419598 12.837786 -10.137382 23.819677 -6.567732 0.440618 13.367470 -0.841542 
0.346819 0.149910 1.006687 85.430203 0.304042 90.991342 5.119190 5.154181 4.312548 -3.623479 0.616875 -6.419785 -0.060738 8.955769 -2.574328 0.000000 -0.000000 0.000000 -5.804560 -3.994836 -0.081731 2.281071 -1.432920 -0.020401 4.594952 -4.382055 -5.374282 0.000000 -0.000000 0.000000 -4.344522 3.774659 -7.633598 2.768911 -2.369845 19.347137 0.526921 0.609173 -6.506403 1.274133 4.485516 2.587217 5.330690 -5.570371 -6.619595 -22.959050 -6.083249 1.956619 -57.623914 -8.498943 15.022922 0.460275 -18.632438 3.197747 -7.050782 -16.168442 8.145364 27.010915 9.081108 10.265906 54.532684 6.340482 12.859986 -10.145006 24.001453 -6.543366 0.641095 13.269103 -1.204691 
0.346792 0.150107 1.006856 85.390027 0.313444 90.832148 5.146550 5.196319 4.462956 -3.631726 0.643750 -6.380696 -0.032016 8.933044 -2.631352 0.000000 -0.000000 0.000000 -5.804953 -4.004663 0.041312 2.267938 -1.456884 0.050490 4.640143 -4.275215 -5.419510 0.000000 -0.000000 0.000000 -4.297418 3.797781 -7.537826 2.767531 -2.371983 19.413503 0.590884 0.598559 -6.438856 1.110138 4.701647 2.847099 5.306441 -5.203693 -6.897580 -22.935869 -6.353360 2.223526 -57.685992 -8.492808 14.792199 0.538007 -18.689852 3.146716 -6.934496 -16.203533 7.930159 26.880516 9.233660 10.514084 54.496867 6.403549 12.667645 -10.232975 24.279408 -6.414998 0.716094 13.181798 -1.300327 
0.346895 0.150186 1.007027 85.352842 0.309831 90.616531 5.168516 5.222511 4.680331 -3.647877 0.685327 -6.356643 -0.002397 8.855267 -2.673928 0.000000 -0.000000 0.000000 -5.828303 -4.019288 0.213994 2.268571 -1.533888 0.147250 4.675831 -4.141815 -5.445607 0.000000 -0.000000 0.000000 -4.338331 3.803346 -7.686646 2.827929 -2.474468 19.973209 0.669555 0.589727 -6.377034 0.960559 5.195475 3.350333 5.361927 -4.827223 -7.506440 -22.961276 -6.529771 2.476695 -57.705006 -8.535546 14.292806 0.908655 -19.090755 2.892073 -7.528191 -16.124063 8.043441 26.892036 9.278478 10.752778 54.118888 6.596308 12.222543 -10.404004 24.868674 -6.326852 1.253998 13.191268 -1.079784 
0.347073 0.150069 1.007453 85.189121 0.309302 90.274634 5.174608 5.251058 5.024716 -3.633693 0.863509 -6.247609 -0.001119 8.791050 -2.805802 0.000000 -0.000000 0.000000 -5.820294 -3.948652 0.428881 2.200733 -1.694638 0.415001 4.665791 -3.866619 -5.530759 0.000000 -0.000000 0.000000 -4.357034 3.909957 -7.820632 2.889153 -2.506902 21.197533 0.685754 0.583501 -6.614380 0.906357 5.749057 4.125184 5.584531 -4.617958 -9.002090 -23.096419 -6.643509 2.599523 -57.543532 -8.314864 13.446972 1.425177 -20.300019 1.337424 -8.103024 -16.399749 7.645751 26.895250 9.711328 11.041675 53.757836 6.381953 11.776506 -10.868836 26.005966 -7.110135 1.592275 13.500100 -0.918589 
0.347071 0.149722 1.007852 85.021801 0.327085 89.771493 5.223690 5.291655 5.472653 -3.620492 0.918997 -6.004673 0.008507 8.787435 -2.991472 0.000000 -0.000000 0.000000 -5.790184 -3.900348 0.719951 2.122626 -1.758300 0.834258 4.584208 -3.628499 -5.685101 0.000000 -0.000000 0.000000 -4.353474 4.009539 -7.424581 2.895165 -2.428740 21.892360 0.801765 0.615485 -6.371394 0.923995 6.078379 4.567038 5.731988 -4.428665 -10.903349 -23.216892 -6.379682 2.550175 -57.501332 -8.328738 12.229926 2.136719 -22.058746 -0.572607 -7.547377 -16.552832 6.128378 26.992767 9.714014 11.213769 53.173595 6.470439 11.106116 -11.317347 27.190414 -8.238028 1.630736 13.505390 -1.543547 
0.346061 0.149393 1.007881 84.952415 0.341106 89.222679 5.326044 5.267009 5.713823 -3.669637 0.895525 -5.400791 0.039576 8.838951 -3.286535 0.000000 -0.000000 0.000000 -5.746896 -3.810140 0.812336 2.028735 -1.803602 1.628968 4.427393 -3.490631 -5.997551 0.000000 -0.000000 0.000000 -4.254211 4.021721 -6.291724 2.744615 -2.173425 21.933997 0.863034 0.749037 -6.235669 1.165774 6.005578 4.150911 5.751077 -4.318245 -11.408995 -23.315997 -6.307586 2.709746 -57.271211 -8.142326 11.539069 2.839928 -24.256528 -1.705177 -5.384624 -16.562658 4.118569 26.895935 10.177654 11.716728 52.953442 6.314989 10.891810 -11.790388 28.049724 -9.455550 0.796916 13.780217 -2.837657 
